<?xml version="1.0" encoding="UTF-8" standalone="no"?>
<!-- Created with Inkscape (http://www.inkscape.org/) -->

<svg
   xmlns:dc="http://purl.org/dc/elements/1.1/"
   xmlns:cc="http://creativecommons.org/ns#"
   xmlns:rdf="http://www.w3.org/1999/02/22-rdf-syntax-ns#"
   xmlns:svg="http://www.w3.org/2000/svg"
   xmlns="http://www.w3.org/2000/svg"
   xmlns:sodipodi="http://sodipodi.sourceforge.net/DTD/sodipodi-0.dtd"
   xmlns:inkscape="http://www.inkscape.org/namespaces/inkscape"
   id="svg4238"
   version="1.1"
   inkscape:version="0.91 r13725"
   width="262"
   height="83"
   viewBox="0 0 262 83"
   sodipodi:docname="brand-white.svg"
   inkscape:export-filename="/home/maru/dev/fiubar_project/fiubar.git/fiubar/static/images/brand-white.png"
   inkscape:export-xdpi="90"
   inkscape:export-ydpi="90">
  <metadata
     id="metadata4244">
    <rdf:RDF>
      <cc:Work
         rdf:about="">
        <dc:format>image/svg+xml</dc:format>
        <dc:type
           rdf:resource="http://purl.org/dc/dcmitype/StillImage" />
        <dc:title></dc:title>
      </cc:Work>
    </rdf:RDF>
  </metadata>
  <defs
     id="defs4242" />
  <sodipodi:namedview
     pagecolor="#ffffff"
     bordercolor="#666666"
     borderopacity="1"
     objecttolerance="10"
     gridtolerance="10"
     guidetolerance="10"
     inkscape:pageopacity="0"
     inkscape:pageshadow="2"
     inkscape:window-width="1920"
     inkscape:window-height="1016"
     id="namedview4240"
     showgrid="true"
     fit-margin-top="0"
     fit-margin-left="0"
     fit-margin-right="0"
     fit-margin-bottom="0"
     inkscape:zoom="4.5596026"
     inkscape:cx="124.80454"
     inkscape:cy="41.458289"
     inkscape:window-x="0"
     inkscape:window-y="27"
     inkscape:window-maximized="1"
     inkscape:current-layer="svg4238">
    <inkscape:grid
       type="xygrid"
       id="grid4252" />
  </sodipodi:namedview>
  <g
     style="font-style:normal;font-weight:normal;font-size:medium;line-height:125%;font-family:sans-serif;letter-spacing:-5.29896545px;word-spacing:0px;fill:#ffffff;fill-opacity:1;stroke:none;stroke-width:1px;stroke-linecap:butt;stroke-linejoin:miter;stroke-opacity:1"
     id="g4271"
     transform="translate(0.96077041,0)"
     inkscape:export-filename="/home/maru/dev/fiubar_project/fiubar.git/fiubar/static/images/brand-white.png"
     inkscape:export-xdpi="90"
     inkscape:export-ydpi="90">
    <path
       inkscape:connector-curvature="0"
       style="font-style:normal;font-variant:normal;font-weight:600;font-stretch:normal;font-family:'Avenir Next LT Pro';-inkscape-font-specification:'Avenir Next LT Pro Semi-Bold';letter-spacing:-5.29896545px;fill:#ffffff;fill-opacity:1"
       d="m 43.602665,81.454201 12.717517,0 0,-50.870069 -12.717517,0 0,50.870069 z"
       id="path4269" />
    <path
       inkscape:connector-curvature="0"
       style="font-style:normal;font-variant:normal;font-weight:600;font-stretch:normal;font-family:'Avenir Next LT Pro';-inkscape-font-specification:'Avenir Next LT Pro Semi-Bold';letter-spacing:-5.29896545px;fill:#ffffff;fill-opacity:1"
       d="m 41.801017,13.309505 c 0,4.027214 3.391338,7.63051 8.054427,7.63051 4.66309,0 8.266386,-3.285358 8.266386,-7.63051 0,-4.3451517 -3.603296,-7.6305102 -8.266386,-7.6305102 -4.663089,0 -8.054427,3.6032965 -8.054427,7.6305102 z"
       id="path4267" />
  </g>
  <path
     inkscape:connector-curvature="0"
     id="path4255"
     d="m 9.7952655,81.454201 12.7175175,0 0,-40.696055 11.763703,0 0,-10.174014 -11.763703,0 0,-8.266386 c 0,-5.087007 1.271751,-11.445765 8.584324,-11.445765 1.801648,0 3.497317,0.317938 4.875048,0.741855 L 36.819989,0.80394653 C 34.912362,0.27404999 33.110714,0.06209137 30.355251,0.06209137 14.564334,0.06209137 9.7952655,10.871981 9.7952655,23.059601 l 0,7.524531 -9.64411712,0 0,10.174014 9.64411712,0 0,40.696055 z"
     style="font-style:normal;font-variant:normal;font-weight:600;font-stretch:normal;font-size:medium;line-height:125%;font-family:'Avenir Next LT Pro';-inkscape-font-specification:'Avenir Next LT Pro Semi-Bold';letter-spacing:-5.29896545px;word-spacing:0px;fill:#ffffff;fill-opacity:1;stroke:none;stroke-width:1px;stroke-linecap:butt;stroke-linejoin:miter;stroke-opacity:1"
     inkscape:export-filename="/home/maru/dev/fiubar_project/fiubar.git/fiubar/static/images/brand-white.png"
     inkscape:export-xdpi="90"
     inkscape:export-ydpi="90" />
  <path
     inkscape:connector-curvature="0"
     id="path4257"
     style="font-style:normal;font-variant:normal;font-weight:600;font-stretch:normal;font-size:medium;line-height:125%;font-family:'Avenir Next LT Pro';-inkscape-font-specification:'Avenir Next LT Pro Semi-Bold';letter-spacing:-5.29896545px;word-spacing:0px;fill:#ffffff;fill-opacity:1;stroke:none;stroke-width:1px;stroke-linecap:butt;stroke-linejoin:miter;stroke-opacity:1"
     d="m 111.86725,30.584132 -12.71751,0 0,27.978538 c 0,6.782676 -3.81526,13.77731 -11.86969,13.77731 -8.1604,0 -9.538134,-7.524531 -9.538134,-13.565351 l 0,-28.190497 -12.717517,0 0,31.793793 c 0,10.385972 5.510924,20.559986 18.758341,20.559986 7.52453,0 13.56535,-4.55711 15.79091,-9.644117 l 0.21196,0 0,8.160407 12.08164,0 0,-50.870069 z"
     inkscape:export-filename="/home/maru/dev/fiubar_project/fiubar.git/fiubar/static/images/brand-white.png"
     inkscape:export-xdpi="90"
     inkscape:export-ydpi="90" />
  <path
     inkscape:connector-curvature="0"
     id="path4259"
     style="font-style:normal;font-variant:normal;font-weight:600;font-stretch:normal;font-size:medium;line-height:125%;font-family:'Avenir Next LT Pro';-inkscape-font-specification:'Avenir Next LT Pro Semi-Bold';letter-spacing:-5.29896545px;word-spacing:0px;fill:#ffffff;fill-opacity:1;stroke:none;stroke-width:1px;stroke-linecap:butt;stroke-linejoin:miter;stroke-opacity:1"
     d="m 117.80905,1.3338431 0,80.1203579 12.08164,0 0,-7.630511 0.21196,0 c 3.49732,5.828862 10.38597,9.114221 17.48659,9.114221 15.47298,0 25.01111,-12.2936 25.01111,-27.130703 0,-15.049062 -10.17401,-26.706786 -24.69318,-26.706786 -9.32617,0 -14.41318,4.66309 -17.06266,7.948448 l -0.31794,0 0,-35.7150269 -12.71752,0 z m 41.86183,54.4733649 c 0,7.948448 -4.76907,16.532772 -14.62515,16.532772 -9.32618,0 -14.94308,-8.372365 -14.94308,-16.320813 0,-7.948449 5.6169,-16.532773 14.94308,-16.532773 9.85608,0 14.62515,8.372366 14.62515,16.320814 z"
     inkscape:export-filename="/home/maru/dev/fiubar_project/fiubar.git/fiubar/static/images/brand-white.png"
     inkscape:export-xdpi="90"
     inkscape:export-ydpi="90" />
  <path
     inkscape:connector-curvature="0"
     id="path4261"
     style="font-style:normal;font-variant:normal;font-weight:600;font-stretch:normal;font-size:medium;line-height:125%;font-family:'Avenir Next LT Pro';-inkscape-font-specification:'Avenir Next LT Pro Semi-Bold';letter-spacing:-5.29896545px;word-spacing:0px;fill:#ffffff;fill-opacity:1;stroke:none;stroke-width:1px;stroke-linecap:butt;stroke-linejoin:miter;stroke-opacity:1"
     d="m 213.72729,81.454201 11.86968,0 0,-30.945959 c 0,-10.174013 -4.45113,-21.40782 -22.67957,-21.40782 -7.73649,0 -15.79092,2.755462 -21.5138,8.054428 l 6.57072,7.736489 c 3.28536,-3.285358 8.47834,-5.828862 13.88329,-5.828862 6.35876,0 11.65772,3.0734 11.65772,9.326179 l 0,1.271752 c -15.8969,0 -34.97317,2.119586 -34.97317,17.274627 0,11.869683 10.91587,15.790917 19.07627,15.790917 7.2066,0 13.24742,-3.285358 15.79092,-7.736489 l 0.31794,0 0,6.464738 z M 213.51533,60.04638 c 0,8.054428 -4.66309,13.035455 -13.35339,13.035455 -4.34515,0 -8.90226,-1.48371 -8.90226,-6.358758 0,-7.524531 11.33978,-8.478345 19.39421,-8.478345 l 2.86144,0 0,1.801648 z"
     inkscape:export-filename="/home/maru/dev/fiubar_project/fiubar.git/fiubar/static/images/brand-white.png"
     inkscape:export-xdpi="90"
     inkscape:export-ydpi="90" />
  <path
     inkscape:connector-curvature="0"
     id="path4263"
     style="font-style:normal;font-variant:normal;font-weight:600;font-stretch:normal;font-size:medium;line-height:125%;font-family:'Avenir Next LT Pro';-inkscape-font-specification:'Avenir Next LT Pro Semi-Bold';letter-spacing:-5.29896545px;word-spacing:0px;fill:#ffffff;fill-opacity:1;stroke:none;stroke-width:1px;stroke-linecap:butt;stroke-linejoin:miter;stroke-opacity:1"
     d="m 231.53877,81.454201 12.71752,0 0,-27.236683 c 0,-3.709276 2.22556,-13.671331 13.67133,-13.671331 1.16577,0 2.22556,0.10598 3.92123,0.529897 l 0,-11.657724 c -0.84783,-0.211959 -2.11958,-0.317938 -3.0734,-0.317938 -6.67669,0 -12.08164,4.133193 -14.8371,9.962055 l -0.21196,0 0,-8.478345 -12.18762,0 0,50.870069 z"
     inkscape:export-filename="/home/maru/dev/fiubar_project/fiubar.git/fiubar/static/images/brand-white.png"
     inkscape:export-xdpi="90"
     inkscape:export-ydpi="90" />
</svg>
